<svg xmlns="http://www.w3.org/2000/svg" width="606" height="585" fill="none"><circle cx="140" cy="174" r="140" fill="#EBEBEB"/><circle cx="519" cy="134" r="55" fill="#A3E635"/><circle cx="573.5" cy="224.5" r="32.5" fill="#EBEBEB"/><circle cx="422" cy="401" r="184" fill="#A3E635"/><path fill="#000" d="M182.831 76.656a7.294 7.294 0 0 1-3.76 5.948 9.06 9.06 0 0 1-.592 10.094 9.79 9.79 0 0 1-9.27 3.734c-.463 1.261-1.571 3.45-2.832 3.862a1.36 1.36 0 0 1-1.262 0 8.96 8.96 0 0 0 7.184 7.313c5.897 1.056 11.407-.875 11.407-6.875a9.94 9.94 0 0 0 8.112-1.931 7.9 7.9 0 0 0 2.858-5.356c.257-6.644-4.352-11.047-7.21-11.047 2.086-3.682.747-6.875-2.575-9.296a7.1 7.1 0 0 0-2.781-1.004c.532 1.458.777 3.006.721 4.558m-51.474 1.905a.436.436 0 0 0 .309-.747.44.44 0 0 0-.309-.128l-1.571-.18c-.489 0-1.288 0-1.751-.155-.3-3.78-.3-7.576 0-11.356a.465.465 0 0 0-.705-.373.46.46 0 0 0-.196.245 21.8 21.8 0 0 0-1.468 9.012 12.5 12.5 0 0 0 .283 3.167c.618 1.622 3.734.901 5.408.515M119.409 63.55c-1.236.335-2.91 1.545-2.292 2.009a3.84 3.84 0 0 0 2.884.128c.901-.232 2.395-1.133 2.369-1.596s-1.751-.876-2.961-.541m16.686 1.803c9.064 1.88 4.866-1.571.412-2.138-1.159-.154-3.863 0-3.811.644.051.644 2.703 1.339 3.399 1.494m2.034 4.325a1.1 1.1 0 0 0-.674-.523 1.1 1.1 0 0 0-.845.112c-.644.36-.618.746-.464 2.832a1.113 1.113 0 0 0 1.185 1.03 1.11 1.11 0 0 0 1.03-1.184 7.5 7.5 0 0 0-.232-2.267m-18.231 1.417a1.11 1.11 0 0 0-1.827-.937c-.224.19-.364.463-.388.757a12 12 0 0 0 0 1.88 1.113 1.113 0 0 0 1.185 1.03 1.11 1.11 0 0 0 1.03-1.185c.051-.541-.026-1.236 0-1.545m8.935 16.763c0 .824 3.27 1.03 4.97-.67 1.262-1.261 1.184-3.192.669-3.321s-.18 0-2.034 1.596c-1.159.979-3.656 1.751-3.605 2.395"/><path fill="#000" d="M560.039 66.46a4.9 4.9 0 0 0-4.069.489 7.2 7.2 0 0 0 .489-3.734c-.463-2.086-3.502-3.038-5.999 0-.155-1.648-.902-2.78-2.215-3.013-3.27-.618-4.686 5.614-5.407 8.884-1.7-1.262-4.481-3.399-5.871-1.725a3.017 3.017 0 0 0-.593 3.193 12.03 12.03 0 0 0 4.146 4.274c-.489 1.133-2.575 4.12-3.656 5.871-.876-.257-2.73-.746-3.116 0-9.038 12.309-33.475 40.84-48.693 40.248-23.51-.902-53.097-12.283-56.058-11.871l-4.146-9.09a25.54 25.54 0 0 0 9.759-12.875 65.7 65.7 0 0 0 3.863-24.952 77 77 0 0 0-.386-8.24c10.866-.72 18.025-13.518 9.553-24.102a11.26 11.26 0 0 0-7.262-4.944 14 14 0 0 0-5.15.696c-10.3 2.575-10.454-3.94-17.51-5.691a18 18 0 0 0-9.579 1.004c-10.3 3.605-8.291 9.347-13.055 14.137-2.575 2.575-13.57-1.056-18.025 6.257-4.738 8.008-4.3 24.952 2.575 31.595a25.7 25.7 0 0 0 5.022 3.528 20.6 20.6 0 0 0 5.768 4.146c2.008 4.094 4.3 15.862 5.15 20.317l-.799 6.695a106.5 106.5 0 0 0-16.196 3.862 158 158 0 0 0-25.132 10.609c-14.678 7.725-12.875 7.571-13.39 6.747a67 67 0 0 0-5.665-5.485c-14.06-11.845-29.304-21.939-47.303-24.9l-2.112-11.974c5.665-4.635 8.755-13.982 8.858-20.6 2.112.875 3.786-.67 4.893-2.575.309-.567 2.24 0 3.734-3.348a3.12 3.12 0 0 0 0-2.163 4.11 4.11 0 0 0 1.954-2.881 4.12 4.12 0 0 0-.95-3.35 5.98 5.98 0 0 0 2.961-4.352c.566-3.373-.206-6.412-3.45-7.467 0-.747.54-1.983.54-2.24a8.93 8.93 0 0 0-2.575-6.49c-3.579-3.064-4.712-2.806-6.952-2.575 0-1.545.978-2.575-.644-4.686a9.24 9.24 0 0 0-10.3-2.575l-.644.206a7.72 7.72 0 0 0-4.532-4.403c-3.218-1.21-5.433.36-8.137 1.776-4.042-3.605-11.767-1.673-15.913.824-1.88 1.133-2.06 3.142-2.807 4.069a7.26 7.26 0 0 0-4.532 1.184c-1.184.747-2.292 1.829-3.244 2.575a5.6 5.6 0 0 0-1.52 1.803 9.3 9.3 0 0 0-1.339 4.326 5.6 5.6 0 0 0-1.776.772 13.56 13.56 0 0 0-4.146 6.953 8.06 8.06 0 0 0 .412 4.429c0 .154.257.463.335.618-.515.747-1.854 1.339-2.112 3.347-.257 2.009-.18 5.949 1.777 7.133.824.49 2.575 1.004 3.193 1.39a17 17 0 0 0 0 3.168c.669 4.352 4.97 5.922 9.399 5.279l1.21.618a42.3 42.3 0 0 0 3.605 13.26 17.25 17.25 0 0 0 6.231 6.747l-1.236 10.97a92 92 0 0 0-18.025 4.532c-17.69 6.463-28.016 14.858-37.157 29.432-12.592-10.429-33.913-26.059-50.393-25.776a17.7 17.7 0 0 0 0-3.347c0-.747-.412-3.039-1.107-3.373 0-1.262-.206-2.575-.309-3.786 5.82 8.601 17.69 4.043 16.377-1.828a9.09 9.09 0 0 0 7.725-3.425 7.55 7.55 0 0 0 0-8.652 4.4 4.4 0 0 0-.772-.927c4.017-1.03 5.407-2.806 5.922-5.356.414-1.95.263-3.978-.438-5.845q.69-.34 1.288-.824a7.9 7.9 0 0 0 2.292-4.197 25.96 25.96 0 0 0-3.451-16.042 7.19 7.19 0 0 0-4.223-3.322 26.5 26.5 0 0 1-.592-4.66 15.46 15.46 0 0 0-8.601-11.305 17.5 17.5 0 0 0-6.901-1.648 7.1 7.1 0 0 0-2.961.386 14.06 14.06 0 0 0-6.231-4.326 20.6 20.6 0 0 0-13.802 2.266c-.85.567-1.52 1.674-2.266 2.215a13.24 13.24 0 0 0-11.511.515 15.1 15.1 0 0 0-8.111 8.626c-1.081 2.575-2.06 6.798-.412 9.012q.142.184.258.387c-.979 1.725-3.219 2.575-3.966 7.364a22 22 0 0 0 .283 7.21 2.705 2.705 0 0 0 2.575 2.086c-.798 7.725-.669 18.025 3.554 24.694a24.6 24.6 0 0 0 3.656 4.275 12.06 12.06 0 0 0 5.15 2.987v4.583c-1.287.721-.386 4.815-.927 7.287-10.454-.721-25.08 1.7-33.192 8.395-12.514 10.403-17.612 25.08-18.951 41.303-1.829 22.377 10.3 36.23 29.123 38.625a114 114 0 0 0 4.171 11.536 180.3 180.3 0 0 0-17.278 47.406c-2.575 14.008-3.785 36.204-4.017 57.499 0 10.146 0 48.204 3.399 57.68.54 1.494 2.858 2.292 4.377 2.73a84 84 0 0 0 12.876 2.317c1.081 22.609 4.3 108.691 4.3 108.82a54 54 0 0 0-12.103 8.832 4.4 4.4 0 0 0-1.39 4.146 2.984 2.984 0 0 0 3.476 1.802c4.275-.386 15.785-3.836 20.986-4.789.129 1.107.309 2.189 1.391 2.575 1.854.644 5.51.978 6.849-.695s.541-6.052.721-7.931c.155-1.391 11.897-82.4 15.914-110.185h3.219c4.944 26.755 18.462 103.258 18.488 103.387a75 75 0 0 0-7.596 6.617c-1.983 2.009-5.305 5.614-3.991 8.086s4.403 1.21 7.004.257c5.15-1.802 12.875-5.278 16.814-6.566.284 1.056.618 2.112 1.726 2.343 1.536.232 3.103.153 4.609-.231 2.189-.644 2.575-2.009 2.575-4.275-.953-11.407-.979 24.566-.206-110.133a34 34 0 0 0 8.42-1.416c7.287-3.579 6.618-108.15-2.858-141.058-.644-2.266-4.712-14.086-7.596-21.424.09-.25.09-.523 0-.773a68 68 0 0 0-2.859-6.257c.773-9.476 1.597-27.759 2.369-33.295l6.412 4.403a30.5 30.5 0 0 0 2.215 6 18.8 18.8 0 0 0 4.944 7.236 25.74 25.74 0 0 0 20.806 6.592h4.326c4.995 29.664 3.553 26.548 4.3 27.295-18.978 65.405-25.106 189.468-22.531 252.35-.001.298.099.588.283.824 1.313 1.674 9.502 2.575 12.205 3.038a99 99 0 0 0-14.445 9.399c-2.292 2.24.721 6.438 3.527 7.159 1.545.412 22.557-2.575 24.154-2.807.206.978.669 1.931 1.648 2.111 2.754.475 5.549.673 8.343.593 1.133 0 2.575-.258 2.832-1.339a78.3 78.3 0 0 0 1.494-13.004c1.828 0 3.656 0 4.249-.515 5.15-5.15 28.144-136.192 30.024-146.775.639-3.55.803-7.17.489-10.764-3.733-44.161-2.343-25.981-2.935-43.002a.464.464 0 0 1 .901 0c1.725 20.239 2.755 20.935 4.146 47.612 0 1.828 20.986 145.41 24.771 149.169a16.3 16.3 0 0 0 6.361 1.236 67.2 67.2 0 0 0 1.313 16.532 1.58 1.58 0 0 0 .85.927c1.879.927 8.909 0 10.3-.18a2.585 2.585 0 0 0 1.648-2.112c2.188.309 22.634 3.193 24.127 2.807 2.807-.721 5.846-4.918 3.528-7.184a118.7 118.7 0 0 0-17.046-10.867c3.09-.232 9.579-.798 12.257-2.369 4.042-2.395.18-182.027-32.265-255.697.592-.953 2.858-27.398 2.961-28.583a42.27 42.27 0 0 0 22.711-7.545l10.301-3.708a567.5 567.5 0 0 0-14.086 72.693c-.592 4.841-3.579 28.891-.36 32.496.332.374.79.612 1.287.67 1.468.128 7.339.643 13.596 1.03 0 73.876 7.262 113.531 18.978 191.322a1.03 1.03 0 0 0 1.004.876h.67a65 65 0 0 0 2.343 10.583c1.622 3.27 26.78 3.193 30.333 2.06a3.04 3.04 0 0 0 1.545-3.502c-1.03-4.584-10.299-5.588-14.677-8.884h1.519c.238.006.47-.07.658-.215.187-.146.319-.352.372-.583l19.699-98.597c.232 1.442 14.085 100.425 14.085 100.425a1.08 1.08 0 0 0 1.107.901h2.035a89 89 0 0 0 1.751 10.79 1.1 1.1 0 0 0 .618.746c2.575 1.211 25.209 2.575 28.943.541a3.09 3.09 0 0 0 1.364-3.94 9.8 9.8 0 0 0-3.321-4.506c-3.116-1.725-8.549-2.111-11.459-3.631h1.442a1.16 1.16 0 0 0 1.056-.875s7.493-27.527 11.896-90.846c2.575-36.926 3.296-74.675 3.013-111.189 3.296.258 8.909.515 11.691.387.772 0 1.519 0 1.854-.747 2.987-5.948.72-65.07-.953-79.98-.155-1.442-3.837-25.93-4.326-29.123 8.574-.335 20.96-2.163 27.99-7.184 36.05-25.75 42.925-69.731 45.861-75.628.283-.618-.412-.927-2.138-1.777a72.5 72.5 0 0 1 3.528-8.6c3.579-1.983 7.725-4.249 8.008-8.343a2.084 2.084 0 0 0-1.055-2.446M303.234 40.169c-.206 0-.257-.155-.257-.412 0-.258.489.412.257.412m94.786 97.85c12.72.798 20.291.901 33.217.824.824 4.995 1.751 10.454 2.755 16.248-6.926 0-30.41.258-36.513.155.283-5.665.489-11.459.541-17.176zm-3.373 53.895c14.986.875 26.11 1.107 46.015.695a3122 3122 0 0 0 3.965 21.269c-12.051.361-39.861.85-52.375.49.489-4.095 1.493-14.034 2.395-22.403zm-3.477 30.745c19.622 1.133 35.329 1.185 55.285.592.979 4.944 1.932 9.734 2.859 14.24-22.763.876-45.037.927-60.873.618a284 284 0 0 0 2.729-15.45m47.818-39.32c-7.725.154-36.05.463-43.569.36a751 751 0 0 0 1.571-20.085c12.36.773 20.754 1.056 38.625.85.618 3.399 2.884 16.042 3.373 18.875m-11.073-68.753c.309 4.223 1.236 10.764 1.88 14.961-6.566 0-26.651.232-31.801.155a139 139 0 0 0-1.056-15.811c6.953 9.347 25.725 8.06 30.977.695m-41.2 131.737a613 613 0 0 0 64.607.49c.979 4.532 1.88 8.652 2.73 12.257-4.069-.232-52.17-2.575-69.68-3.425.721-2.936 1.494-6.051 2.266-9.322zm5.64-166.73c-.901-1.803-6.618-2.576-7.159-7.134-.618-5.33 5.588-5.51 7.725-3.115.18.18 1.442 1.88 1.597 2.085 1.339 1.803 2.575 1.854 2.987-.72.592-4.79-.876-14.37 4.712-13.365a64.8 64.8 0 0 0 12.257 2.575c7.905.721 14.188 0 19.287-5.665.566-.129 2.446-.206 3.115-.257.235 2.722.304 5.457.206 8.188a63.7 63.7 0 0 1-4.223 24.205c-4.094 9.81-9.759 12.18-9.759 12.18a1.06 1.06 0 0 0-.592.566c-.232.593-.309 0 4.532 10.841 1.03 9.347-26.651 13.158-30.23-1.519l.875-7.493c.103-.541-2.961-16.558-5.408-21.373zm-56.65 46.349a59.05 59.05 0 0 1 16.145 29.587c1.519 7.725.875 14.214-1.648 18.669a33.7 33.7 0 0 1-6.128 7.725 23.8 23.8 0 0 1-9.013 5.768 48 48 0 0 1-22.377 2.575 178 178 0 0 1-29.664-6.361c0-.772-.154-1.596-.231-2.575l8.883-3.244a25.8 25.8 0 0 0 4.918-1.931c.902-.464.979-1.829 1.082-2.987.438-4.223-.438-3.657.85-4.687 2.884-2.266 10.815-4.48 14.265-5.459 1.159-.309 2.833-.566 2.318-1.674a7.73 7.73 0 0 0-1.854-4.274c-5.433-23.021-4.506-22.943-5.382-22.789a.42.42 0 0 0-.3.174.407.407 0 0 0-.06.341c1.158 6.85 2.884 15.708 4.12 21.682l-3.193-.464c-.541 0-1.082 0-1.211-.257-1.03-2.138-.592-4.661-3.064-5.897a2.22 2.22 0 0 0-1.774-.312 2.22 2.22 0 0 0-1.419 1.11c-1.339 2.575.283 8.343 0 8.266a18 18 0 0 1-4.274 1.159 1.82 1.82 0 0 0-.85-1.133 100 100 0 0 0-16.248-6.258c-1.211-10.145-2.807-22.917-3.374-27.192q.298-.139.541-.36a22.7 22.7 0 0 0 1.983-5.665c.438.489.798.953 1.596.644a175.4 175.4 0 0 0 19.75-16.712 124 124 0 0 1 35.613 22.428zm-32.6 25.982c1.854 1.056.85 4.197 2.936 5.768 2.09.613 4.26.908 6.437.875a7 7 0 0 1 .953 2.781c-2.008.618-11.768 2.781-15.836 5.588a43 43 0 0 0-.644-5.794c2.112-.18 4.764 0 5.536-1.364.773-1.365-.54-8.549.618-7.854m-4.969-48.925c-4.61 3.991-14.935 12.54-18.025 14.806-1.545-1.725-5.588-6.515-6.721-8.266 2.575-2.214 12.102-8.652 13.493-9.424a48.5 48.5 0 0 1 11.253 2.729zm-40.557-3.064 12.566 9.682c-1.905 2.034-6.566 6.077-8.652 8.188-2.935-2.111-10.943-10.583-15.45-15.27a89.5 89.5 0 0 1 11.536-2.6m-7.004-34.093c-.36-.515-.412-.36-3.038-1.751-1.725-1.417-3.811-2.575-4.584-4.687 0-1.75.541-3.914 2.369-3.81a8.6 8.6 0 0 1 3.734 1.905 6.18 6.18 0 0 0 6.644-1.88 7.44 7.44 0 0 0 .746-5.279 6.57 6.57 0 0 0 4.378-2.24 9.7 9.7 0 0 0 .978-3.554c2.409.685 4.981.493 7.262-.54a13.9 13.9 0 0 0 4.197-2.807 8.5 8.5 0 0 0 1.056 1.905 4.06 4.06 0 0 0 3.734 1.829 7.3 7.3 0 0 0 2.575-.927v1.03a5.41 5.41 0 0 0 3.919 5.292c.76.217 1.558.265 2.338.14a3 3 0 0 0 0 .516c.257 1.39-.283 5.588 1.648 6.077 1.931.49.875-4.326 4.583-4.918a2.936 2.936 0 0 1 3.374 1.648c.721 2.317 0 3.347-1.211 5.639l-.798.901c-1.236 1.34-2.575 2.755-2.575 4.043a28.3 28.3 0 0 1-2.189 11.484 21.27 21.27 0 0 1-6.643 9.4 1.08 1.08 0 0 0-.412 1.003l2.111 12.386-13.338 9.064c-2.343-1.802.772.876-12.051-9.038l1.39-11.974a1.14 1.14 0 0 0-.566-1.107c-9.244-5.176-8.523-17.974-9.631-19.75m-29.87 48.667a78.6 78.6 0 0 1 23.175-11.381 194 194 0 0 0 15.013 15.45c1.133.978 2.574 2.188 3.579 1.158.36-.412.901-.952 1.519-1.57a69 69 0 0 0 2.266 6.592 1.66 1.66 0 0 0 .979.798c-.284 3.322-.979 12.875-1.777 23.458a102 102 0 0 0-24.875-2.214c0-.67.824-8.601.85-8.858 0-1.391 0-3.219.155-3.94a.443.443 0 0 0-.644-.498.44.44 0 0 0-.206.266c-2.292 4.661-1.88 7.957-1.571 13.107a43.5 43.5 0 0 0-16.609 4.197.45.45 0 0 0-.193.605.45.45 0 0 0 .605.193c18.025-8.806 50.728-.463 68.109 7.03a30 30 0 0 1 3.528 1.725 46 46 0 0 1 .721 12.335c0 1.158 0 1.442-2.06 2.24-1.468.592-3.219 1.004-4.3 1.416-3.528 1.313-6.927 2.575-10.3 3.863a417 417 0 0 1-58.221 14.162c-6.412 0-14.858-1.184-19.57-5.613-20.394-19.081.927-61.543 19.827-74.521m-96.511-21.81a18 18 0 0 1-5.974-5.588c-4.017-6.231-4.068-16.428-3.399-23.793a23.2 23.2 0 0 0 9.528-5.768 51.5 51.5 0 0 0 7.493-9.76l1.442-2.78a37.54 37.54 0 0 0 12.875 16.686 16.5 16.5 0 0 0 6.412 1.493c-.051 2.02.166 4.037.644 6a.84.84 0 0 0 .514.436.85.85 0 0 0 .67-.075c1.133-.618 1.571-3.94 3.322-6.232.463-.644 1.004-1.133 1.674-.978a4.54 4.54 0 0 1 1.957.798c2.575 1.905.515 9.527-4.301 11.896-1.442.721-8.961 9.476-9.45 12.232a8.86 8.86 0 0 0 .232 4.557c.154 2.24.412 5.15.592 7.725-4.764 0-16.377 0-21.141.232.232-6.36.361-5.69-3.09-7.081m48.101 282.709h-19.441c2.961-36.668 6.566-126.587 5.794-158.44a192 192 0 0 0 9.27-.618c5.871 30.36 9.141 129.368 4.377 159.058m-64.375-2.343c-2.781-30.72 0-130.424 7.365-157.075 1.287.18 10.506 1.004 10.506 1.004-3.914 31.467-7.931 121.772-6.541 157.075-4.171-.309-7.982-.695-11.484-1.004zm28.48-157.951-9.682-.386a52 52 0 0 1 .592-8.291l3.476-.258 7.519-.18a54 54 0 0 1-1.905 9.115m-29.819-8.471 18.643-.361a44 44 0 0 0-.721 8.601 111.3 111.3 0 0 1-20.831-2.138c1.905-4.171 2.703-5.587 2.909-6.102m20.987 167.89c-.85-32.136 4.377-130.45 7.725-157.41 3.527 0 6.154.18 13.467 0 0 12.205-3.657 142.912-4.506 157.976-4.404 0-15.553-.489-16.686-.566m10.815-159.393c.631-3.006.942-6.07.927-9.141 16.917-.309 33.475-.721 40.942.283a36 36 0 0 1 2.575 5.614c-14.549 3.115-30.874 3.244-44.444 3.244M89.895 369.511c-4.454-2.832-5.896-82.76-.437-114.639a168.3 168.3 0 0 1 13.724-41.2l2.704.567c-7.21 26.033-10.094 120.639-6.515 157.616a35.5 35.5 0 0 1-9.476-2.344m37.261 115.875c-7.159.979-11.021 1.545-13.828 2.163a6.67 6.67 0 0 1-4.532-1.236c2.111-1.261 2.575-1.081 2.575-2.291.232-4.996-4.867-99.138-5.485-109.103 11.742 1.339 26.42 2.06 38.162 2.395-3.992 24.565-15.064 95.481-16.97 108.15zm57.628-5.304c-6.54 1.828-10.635 3.013-13.39 4.043a6.6 6.6 0 0 1-4.661-.618c1.854-1.468 2.241-1.365 2.138-2.575-.464-5.15-18.618-98.288-19.648-103.464 14.575.309 28.325.155 37.261-.463-.593 28.917-1.623 91.283-1.777 103.154zm6.541-245.166c8.6 30.462 9.476 123.6 3.682 138.561-2.163 1.081-11.871 1.493-14.24 1.596 5.15-32.058 2.575-128.75-3.322-159.984 2.421-.387 4.584-.799 6.592-1.236 2.859 7.802 6.618 19.029 7.21 21.14zm-18.18-75.267c-1.107-1.004-2.189-1.906-3.116-2.884a.44.44 0 0 0-.618-.077.439.439 0 0 0-.077.618c4.403 7.21 10.506 10.686 13.776 13.647-.824 3.142-1.673 21.965-2.575 33.115-6.798-1.571-42.307.283-54.229.283a1.03 1.03 0 0 0-.721.309c-9.373.438-16.763.875-18.823 1.004-1.236-2.884-2.781-7.545-3.734-10.506 4.175.75 8.454.715 12.617-.103a13.7 13.7 0 0 0 1.005 4.558c1.287 1.133 44.135-1.931 45.5-2.215.927-.206.953-1.493 1.03-2.575.232-2.575.386-8.24.489-14.883a2.964 2.964 0 0 0 1.847-3.069 3 3 0 0 0-.405-1.206 3.575 3.575 0 0 0-.772-5.15c.332-.324.586-.721.739-1.16a3 3 0 0 0-.33-2.659 3 3 0 0 0-1.002-.944c0-9.296 0-18.36-.334-23.433-.155-4.171-.284-4.635-.927-5.15-1.262-.772-6.695-.463-9.142-.36a5.44 5.44 0 0 0-.849-3.09c-1.185-1.159-6.412 0-9.451 0-.669-2.138-1.004-3.734-3.373-4.841a4.993 4.993 0 0 0-6.18 2.575c0 .257-.747 2.369-.901 3.064a80 80 0 0 0-8.24 1.056c-.979.309-1.056 2.369-1.082 3.811-9.81 1.03-10.454 1.03-10.634 2.034-.181 1.004.54 17.381.592 18.746a52 52 0 0 0-7.133 1.416c.487-3.198.78-6.423.876-9.656 0-1.416.128-7.468-.721-7.493-.85-.026-1.365 5.922-1.442 7.107-.155 1.802-.387 8.523-.258 10.531a46 46 0 0 0-3.167 1.108.43.43 0 0 0-.246.23.435.435 0 0 0 .218.582.44.44 0 0 0 .337.012c14.549-5.022 34.247-2.215 45.037 3.193l.489 10.84c-9.322 6.515-24.154 14.575-35.484 16.017a37.2 37.2 0 0 1-10.042-.206c-19.519-2.524-29.587-16.506-28.17-36.591 1.106-15.63 6.076-30.745 18.076-40.762 7.725-6.412 22.48-8.601 32.522-7.725 2.575.206 1.185-5.356 1.854-7.365.979-.154 4.094-.206 5.15-.231a37 37 0 0 0 0 5.33c0 .747.541 3.553 1.21 3.347.67-.206.927-2.394.953-3.012s0-.696-.232-5.665h8.575a43 43 0 0 0 0 5.15c0 .746.541 3.553 1.21 3.347.67-.206.927-2.395.953-3.013s0-1.905-.232-5.433h6.283c.258.835.397 1.702.412 2.575 0 2.987-.515 3.425 0 4.017 1.391 1.571 14.008-4.661 50.908 26.059-6.875 11.588-12.308 26.754-10.3 40.119-6-4.043-4.841-2.781-17.716-14.343m-58.066.232c-.258-8.627-.464-16.506-.464-17.459 2.035-.309 6.644-.772 8.678-.978 0 3.785.155 4.042 2.575 4.3 4.609.541 24.926 0 27.063-1.828.194-.157.345-.361.438-.593.163-1.418.198-2.849.103-4.274a67 67 0 0 1 7.545 0c.489 4.583.541 21.501.541 26.11-.967.009-1.929.148-2.859.412.361-2.111.902-5.536-1.236-5.999a3.04 3.04 0 0 0-3.193 1.004 12 12 0 0 0-1.905 5.742 29 29 0 0 1-3.528-.206 1.03 1.03 0 0 0-.541-.644 63.2 63.2 0 0 0-33.217-5.51zm48.41 14.239c-1.004.593-1.648.181-3.451.412a1.055 1.055 0 0 0 0 2.112c.856.087 1.719.087 2.575 0 .206 0 .953.154.953.36 0 2.344-4.609 1.442-6.643.258a24 24 0 0 0-7.494.721l-.515-10.609a11.1 11.1 0 0 0 4.301.283.88.88 0 0 0 .412-.515c.592-2.163 1.081-6.154 3.347-5.588a13.3 13.3 0 0 1-.489 4.816c-.258 1.596.36 1.957 1.571 1.854a9.9 9.9 0 0 1 3.424-.85c.67 0 1.339 0 1.545.772.206.773-.463 1.056-1.107 1.288s-3.167.592-3.425.644a1.107 1.107 0 0 0 .361 2.163c3.116-.335 2.575-.49 3.502-.284a1.805 1.805 0 0 1 1.39 1.803.464.464 0 0 1-.257.438zm-14.188 4.919a54 54 0 0 1 6.849-.464 10.7 10.7 0 0 0 5.356 1.648c0 4.609 0 12.875-.309 15.296-5.613.592-38.342 3.785-43.955 3.27a27 27 0 0 1-.592-4.017c14.214-2.936 31.93-14.291 32.651-15.656zm92.7 315.463a37.4 37.4 0 0 1-8.781-.464v-1.287a1.21 1.21 0 0 0-.412-.798c-.695-.541-.155-.155-18.18 2.137l-5.896.669c-.567 0-1.211.284-1.211 0-1.39-.36-3.424-2.806-2.575-3.708a132 132 0 0 1 15.193-10.531c8.008.952 17.587 1.622 23.51 1.802a91 91 0 0 1-1.623 12.257zm87.009-14.832c2.395 0 4.789-.129 7.081-.258 3.476 2.138 14.961 9.219 17.793 12.129.464.489 0 1.442-.412 1.982-1.648 2.266-2.909 1.7-3.373 1.648-4.377-.36-18.875-2.394-23.175-3.012a1.1 1.1 0 0 0-.848.229 1.1 1.1 0 0 0-.414.775v1.287a35.7 35.7 0 0 1-8.755.49 76.5 76.5 0 0 1-1.596-15.244c-.052-.747-.824.309 13.725.051zm-12.515-259.766c-13.209 0-76.039 1.571-86.752 2.781-.257-4.378-3.244-22.377-3.965-26.703a363 363 0 0 0 36.874-8.343 20.9 20.9 0 0 0-.232 5.305 78 78 0 0 0 10.3 10.3 1.37 1.37 0 0 0 1.391.18 44.2 44.2 0 0 0 9.347-10.815c.107-2.13-.04-4.265-.438-6.36 7.159 2.575 26.574 6.643 36.308 6.489-.464 5.33-2.421 24.436-2.833 27.166m27.295 23.767c6.592-45.397 12.746-60.435 12.875-63.783a45.8 45.8 0 0 0 11.279-7.004 40 40 0 0 0 3.759-3.811c.438-.412-.154-1.055-.566-.669s-1.417.927-2.137 1.39c-8.755 5.871-10.764 8.009-21.038 11.665a20.45 20.45 0 0 0 4.97-7.905c4.506-15.218-1.7-30.9-11.562-43.234a192 192 0 0 1 37.312-17.819 105.7 105.7 0 0 1 15.759-3.966c.193 1.127.548 2.22 1.055 3.245 4.12 25.312-4.017 98.983-8.858 123.445-2.806 14.214-8.163 34.943-14.317 48.204-.41.983-.901 1.93-1.467 2.833-3.245 1.081-26.008-.824-29.536-1.159-2.626-4.764 1.726-35.921 2.524-41.432zm108.923 236.9h-19.545c0-.772-14.523-103.489-14.935-104.905 1.648-10.584 12.875-67.362 12.489-81.551a.437.437 0 1 0-.875 0c0 1.494-.464 4.378-1.082 8.215-9.553 59.637-16.892 93.987-33.32 176.49l-19.879-.206c-13.03-82.4-19.416-122.364-19.751-190.086 2.73.154 14.06.875 16.249-.232.772-.386 1.57-2.112 2.06-3.116a189 189 0 0 0 9.527-27.243c17.639.978 62.959 3.09 70.761 3.502 3.322 15.656 3.554 16.557 4.481 16.892a48.8 48.8 0 0 0 8.986 1.416c.206 52.195-2.523 150.019-15.115 200.695zm97.85-393.048c-3.554 8.317-11.124 49.929-45.784 74.237-6.772 4.738-19.106 6.438-27.346 6.67a61 61 0 0 0-2.318-11.948c-.515-1.597-1.287-3.477-1.751-4.61a.462.462 0 0 0-.786-.063.46.46 0 0 0-.089.295c1.416 11.279 1.648 7.287 3.193 17.484 0 0 4.248 28.763 4.403 30.179 1.983 18.025 3.244 70.916 1.236 78.255-7.11.166-14.219-.386-21.218-1.648-2.755-9.193-29.716-142.733-30.308-165.29 6.824 1.236 33.14 10.712 55.182 11.408 19.673.592 49.26-41.2 49.518-41.2 2.034-.36 13.261 4.403 16.093 6.102zm8.626-18.772c-.206 3.322-4.069 5.562-6.927 7.313-1.004.644-3.27 8.292-3.553 9.373a101 101 0 0 0-10.944-4.351c2.575-3.914 4.815-5.974 3.837-6.901-1.777-1.623-5.15-3.811-3.399-5.64q.326.071.618.232c2.446 1.159 4.403 4.3 5.459 2.37a45 45 0 0 1 1.931-6.67c1.365-3.167 2.214-2.575 1.88.515a28.7 28.7 0 0 1-1.571 6.18 1.107 1.107 0 1 0 2.111.67 25 25 0 0 1 2.859-6.464c1.261-1.854 2.781-2.317 2.729-1.056a16.2 16.2 0 0 1-2.575 6.31 3.24 3.24 0 0 0-.592 1.57 1.055 1.055 0 0 0 1.931.747 24.5 24.5 0 0 1 2.575-3.039c1.519-1.493 3.734-2.523 3.657-1.287z"/><path fill="#000" d="M269.193 70.76c1.056 2.396 6.824.902 5.691-.308a.44.44 0 0 0-.618 0c-.343.11-.712.11-1.056 0a7.6 7.6 0 0 1-2.034-.592v-9.682a.46.46 0 0 0-.45-.355.46.46 0 0 0-.451.355 23.9 23.9 0 0 0-1.159 8.729 6.4 6.4 0 0 0 .077 1.854m-7.467-6.385c0-.695 0-1.442-.155-2.086a1.13 1.13 0 0 0-1.261-.927 1.1 1.1 0 0 0-.735.448 1.1 1.1 0 0 0-.192.84c0 .463 0 1.004.128 1.88a1.13 1.13 0 0 0 .379.76 1.113 1.113 0 0 0 1.566-.11 1.1 1.1 0 0 0 .27-.805m17.381-.18a1.11 1.11 0 0 0 1.107 1.107 1.105 1.105 0 0 0 1.108-1.107v-1.16a1.14 1.14 0 0 0-.08-1.406 1.13 1.13 0 0 0-1.388-.241c-1.004.644-.747 1.931-.747 2.807m-5.201 15.913c-.926.516-1.901.938-2.91 1.262-.567 0-.695.798 0 .875.654.329 1.38.488 2.111.464a4.96 4.96 0 0 0 3.657-2.343 4.3 4.3 0 0 0 .386-2.19.447.447 0 1 0-.875-.18 13.4 13.4 0 0 1-2.369 2.112m143.736 1.751c1.957.618 5.15 1.03 6.515-.515s.618-5.562.463-7.261a41.3 41.3 0 0 0-2.163-9.785.444.444 0 0 0-.527-.348.45.45 0 0 0-.348.528c0 .798.36 4.738.438 5.742.492 3.28.665 6.6.515 9.914-.578.39-1.24.638-1.932.72-2.575.439-3.167-.18-3.296.49a.414.414 0 0 0 .335.515m-4.352-16.97c0-.823-2.369-1.235-3.914-.9-1.545.334-3.656 1.957-3.064 2.575s6.875-.927 6.978-1.674m-1.699 6.155v2.215a1.11 1.11 0 0 0 1.107 1.107 1.107 1.107 0 0 0 1.107-1.107V71.12a1.133 1.133 0 0 0-1.081-1.158 1.136 1.136 0 0 0-1.133 1.081m21.965-5.098c.206-.31-.618-1.957-2.575-2.575s-3.451.36-3.451.824 5.639 2.317 6.026 1.75M410.484 87.37c-.593.18-.593 3.888 2.935 4.944 1.803.515 4.249.231 4.3-.412.052-.644-3.502-1.417-4.66-2.215s-2.086-2.472-2.575-2.317m19.544-17.845a1.11 1.11 0 0 0-1.039.66 1.1 1.1 0 0 0-.094.421v2.19a1.132 1.132 0 0 0 2.24 0v-2.138a1.108 1.108 0 0 0-1.107-1.133"/></svg>