<svg width="606" height="585" viewBox="0 0 606 585" fill="none" xmlns="http://www.w3.org/2000/svg">
<circle cx="140" cy="174" r="140" fill="#EBEBEB"/>
<circle cx="519" cy="134" r="55" fill="#A3E635"/>
<circle cx="573.5" cy="224.5" r="32.5" fill="#EBEBEB"/>
<circle cx="422" cy="401" r="184" fill="#A3E635"/>
<path d="M182.831 76.6557C182.757 77.884 182.374 79.0736 181.717 80.1137C181.059 81.1538 180.149 82.0105 179.071 82.604C179.987 84.155 180.419 85.9434 180.314 87.7412C180.208 89.539 179.569 91.2647 178.479 92.698C177.412 94.0959 175.988 95.1805 174.357 95.8376C172.725 96.4946 170.947 96.6999 169.209 96.4317C168.746 97.6935 167.638 99.8822 166.377 100.294C166.182 100.396 165.965 100.449 165.746 100.449C165.526 100.449 165.31 100.396 165.115 100.294C165.421 102.102 166.273 103.772 167.558 105.08C168.843 106.387 170.497 107.269 172.299 107.607C178.196 108.663 183.706 106.732 183.706 100.732C185.118 101.017 186.574 100.991 187.974 100.658C189.375 100.325 190.686 99.6909 191.818 98.8007C192.623 98.1404 193.291 97.3272 193.781 96.4081C194.272 95.4889 194.576 94.4818 194.676 93.4447C194.933 86.8012 190.324 82.398 187.466 82.398C189.552 78.7157 188.213 75.5227 184.891 73.1022C184.044 72.5769 183.097 72.2348 182.11 72.098C182.642 73.5564 182.887 75.1042 182.831 76.6557ZM131.357 78.5612C131.473 78.5612 131.584 78.5151 131.666 78.433C131.748 78.3509 131.794 78.2396 131.794 78.1235C131.794 78.0074 131.748 77.896 131.666 77.8139C131.584 77.7319 131.473 77.6857 131.357 77.6857L129.786 77.5055C129.297 77.5055 128.498 77.5055 128.035 77.351C127.735 73.5717 127.735 69.7746 128.035 65.9952C128.03 65.8876 127.987 65.7851 127.915 65.7054C127.842 65.6257 127.744 65.5737 127.637 65.5585C127.531 65.5432 127.422 65.5656 127.33 65.6219C127.238 65.6781 127.169 65.7646 127.134 65.8665C126.014 68.7334 125.514 71.8049 125.666 74.879C125.625 75.9425 125.721 77.0068 125.949 78.0462C126.567 79.6685 129.683 78.9475 131.357 78.5612ZM119.409 63.549C118.173 63.8837 116.499 65.094 117.117 65.5575C118.025 65.9742 119.059 66.0204 120.001 65.6862C120.902 65.4545 122.396 64.5532 122.37 64.0897C122.344 63.6262 120.619 63.2142 119.409 63.549ZM136.095 65.3515C145.159 67.2312 140.961 63.7807 136.507 63.2142C135.348 63.0597 132.644 63.2142 132.696 63.858C132.747 64.5017 135.399 65.197 136.095 65.3515ZM138.129 69.6775C138.057 69.5501 137.96 69.4383 137.844 69.3485C137.729 69.2588 137.596 69.1928 137.455 69.1545C137.314 69.1162 137.166 69.1063 137.021 69.1253C136.876 69.1444 136.736 69.192 136.61 69.2655C135.966 69.626 135.992 70.0122 136.146 72.098C136.167 72.3916 136.303 72.6651 136.525 72.8583C136.747 73.0515 137.037 73.1485 137.331 73.128C137.624 73.1075 137.898 72.9712 138.091 72.7491C138.284 72.5269 138.381 72.2371 138.361 71.9435C138.399 71.1808 138.321 70.4166 138.129 69.6775ZM119.898 71.0937C119.922 70.8001 119.828 70.5089 119.637 70.2844C119.447 70.0598 119.174 69.9203 118.881 69.8964C118.587 69.8725 118.296 69.9662 118.071 70.1569C117.847 70.3477 117.707 70.6198 117.683 70.9135C117.635 71.5391 117.635 72.1676 117.683 72.7932C117.704 73.0869 117.84 73.3604 118.062 73.5536C118.284 73.7467 118.574 73.8437 118.868 73.8232C119.162 73.8027 119.435 73.6664 119.628 73.4443C119.821 73.2222 119.918 72.9324 119.898 72.6387C119.949 72.098 119.872 71.4027 119.898 71.0937ZM128.833 87.857C128.833 88.681 132.103 88.887 133.803 87.1875C135.065 85.9257 134.987 83.9945 134.472 83.8657C133.957 83.737 134.292 83.8657 132.438 85.4622C131.279 86.4407 128.782 87.2132 128.833 87.857Z" fill="black"/>
<path d="M560.039 66.4596C559.366 66.2422 558.653 66.1733 557.951 66.2578C557.248 66.3422 556.573 66.578 555.97 66.9489C556.462 65.7699 556.631 64.4811 556.459 63.2151C555.996 61.1294 552.957 60.1766 550.46 63.2151C550.305 61.5671 549.558 60.4341 548.245 60.2024C544.975 59.5844 543.559 65.8159 542.838 69.0861C541.138 67.8244 538.357 65.6871 536.967 67.3609C536.573 67.7809 536.309 68.3049 536.204 68.8707C536.099 69.4366 536.158 70.0207 536.374 70.5539C537.376 72.3037 538.802 73.7736 540.52 74.8284C540.031 75.9614 537.945 78.9484 536.864 80.6994C535.988 80.4419 534.134 79.9526 533.748 80.6994C524.71 93.0079 500.273 121.539 485.055 120.947C461.545 120.045 431.958 108.664 428.997 109.076L424.851 99.9861C429.412 96.8633 432.836 92.3456 434.61 87.1111C437.498 79.1216 438.81 70.6481 438.473 62.1594C438.492 59.4078 438.363 56.6571 438.087 53.9194C448.953 53.1984 456.112 40.4006 447.64 29.8174C446.823 28.5484 445.759 27.4568 444.512 26.6075C443.264 25.7581 441.859 25.1684 440.378 24.8734C438.634 24.7825 436.887 25.0183 435.228 25.5686C424.928 28.1436 424.774 21.6289 417.718 19.8779C414.493 19.3376 411.182 19.6847 408.139 20.8821C397.839 24.4871 399.848 30.2294 395.084 35.0189C392.509 37.5939 381.514 33.9631 377.059 41.2761C372.321 49.2844 372.759 66.2279 379.634 72.8714C381.161 74.2432 382.847 75.4276 384.656 76.3991C386.324 78.1046 388.275 79.5074 390.424 80.5449C392.432 84.6391 394.724 96.4069 395.574 100.862L394.775 107.557C389.284 108.42 383.868 109.711 378.579 111.419C369.911 114.225 361.502 117.774 353.447 122.028C338.769 129.753 340.572 129.599 340.057 128.775C338.277 126.837 336.385 125.006 334.392 123.29C320.332 111.445 305.088 101.351 287.089 98.3896L284.977 86.4159C290.642 81.7809 293.732 72.4336 293.835 65.8159C295.947 66.6914 297.621 65.1464 298.728 63.2409C299.037 62.6744 300.968 63.2409 302.462 59.8934C302.72 59.1955 302.72 58.4282 302.462 57.7304C302.978 57.4219 303.421 57.0041 303.758 56.5062C304.096 56.0084 304.321 55.4427 304.416 54.8487C304.512 54.2548 304.477 53.6472 304.312 53.0684C304.148 52.4897 303.859 51.954 303.466 51.4989C304.259 51.0478 304.938 50.4211 305.452 49.6667C305.965 48.9124 306.299 48.0505 306.427 47.1471C306.993 43.7739 306.221 40.7354 302.977 39.6796C302.977 38.9329 303.517 37.6969 303.517 37.4394C303.546 36.2403 303.332 35.0478 302.89 33.933C302.447 32.8181 301.785 31.8038 300.942 30.9504C297.363 27.8861 296.23 28.1436 293.99 28.3754C293.99 26.8304 294.968 25.8004 293.346 23.6889C292.102 22.2533 290.446 21.236 288.603 20.7753C286.76 20.3145 284.819 20.4327 283.046 21.1139L282.402 21.3199C282 20.3079 281.388 19.3925 280.607 18.6337C279.826 17.8748 278.893 17.2897 277.87 16.9166C274.652 15.7064 272.437 17.2771 269.733 18.6934C265.691 15.0884 257.966 17.0196 253.82 19.5174C251.94 20.6504 251.76 22.6589 251.013 23.5859C249.413 23.4692 247.819 23.8857 246.481 24.7704C245.297 25.5171 244.189 26.5986 243.237 27.3454C242.609 27.8325 242.091 28.4467 241.717 29.1479C240.92 30.457 240.46 31.9433 240.378 33.4739C239.745 33.6254 239.144 33.8869 238.602 34.2464C236.544 36.0881 235.098 38.5136 234.456 41.1989C234.175 42.6846 234.318 44.2194 234.868 45.6279C234.868 45.7824 235.125 46.0914 235.203 46.2459C234.688 46.9926 233.349 47.5849 233.091 49.5934C232.834 51.6019 232.911 55.5416 234.868 56.7261C235.692 57.2154 237.443 57.7304 238.061 58.1166C237.963 59.1701 237.963 60.2304 238.061 61.2839C238.73 65.6356 243.031 67.2064 247.46 66.5626L248.67 67.1806C249.14 71.768 250.358 76.2476 252.275 80.4419C253.704 83.2124 255.858 85.5439 258.506 87.1884L257.27 98.1579C251.124 99.0559 245.085 100.574 239.245 102.69C221.555 109.153 211.229 117.548 202.088 132.122C189.496 121.693 168.175 106.063 151.695 106.346C151.801 105.233 151.801 104.112 151.695 102.999C151.695 102.252 151.283 99.9604 150.588 99.6256C150.588 98.3639 150.382 97.0506 150.279 95.8404C156.099 104.441 167.969 99.8831 166.656 94.0121C168.125 94.1094 169.595 93.8485 170.941 93.252C172.286 92.6554 173.467 91.741 174.381 90.5874C175.268 89.3193 175.744 87.8091 175.744 86.2614C175.744 84.7137 175.268 83.2034 174.381 81.9354C174.168 81.592 173.908 81.28 173.609 81.0084C177.626 79.9784 179.016 78.2016 179.531 75.6524C179.945 73.7021 179.794 71.6739 179.093 69.8071C179.552 69.5808 179.983 69.3044 180.381 68.9831C181.561 67.8552 182.362 66.3886 182.673 64.7859C183.287 59.206 182.077 53.5772 179.222 48.7436C178.297 47.1319 176.783 45.9413 174.999 45.4219C174.664 43.8889 174.466 42.3292 174.407 40.7611C173.982 38.3263 172.979 36.029 171.483 34.062C169.986 32.0951 168.039 30.5158 165.806 29.4569C163.642 28.4424 161.294 27.8815 158.905 27.8089C157.902 27.7256 156.892 27.8573 155.944 28.1951C154.302 26.2094 152.147 24.7129 149.713 23.8691C144.988 22.9917 140.106 23.7932 135.911 26.1351C135.061 26.7016 134.391 27.8089 133.645 28.3496C131.811 27.5623 129.824 27.1997 127.83 27.2889C125.837 27.3781 123.89 27.9168 122.134 28.8646C120.27 29.6813 118.591 30.8665 117.197 32.3489C115.803 33.8313 114.724 35.5804 114.023 37.4909C112.942 40.0659 111.963 44.2889 113.611 46.5034C113.706 46.626 113.792 46.7551 113.869 46.8896C112.89 48.6149 110.65 49.4646 109.903 54.2541C109.599 56.6566 109.695 59.0929 110.186 61.4641C110.323 62.0482 110.651 62.5701 111.117 62.9477C111.583 63.3253 112.161 63.5371 112.761 63.5499C111.963 71.2749 112.092 81.5749 116.315 88.2441C117.366 89.8041 118.593 91.2383 119.971 92.5186C121.411 93.9293 123.182 94.9563 125.121 95.5056V100.089C123.834 100.81 124.735 104.904 124.194 107.376C113.74 106.655 99.1138 109.076 91.0025 115.771C78.488 126.174 73.3895 140.851 72.0505 157.074C70.2223 179.451 82.3505 193.304 101.174 195.699C102.356 199.616 103.749 203.467 105.345 207.235C97.3917 222.149 91.5753 238.107 88.067 254.641C85.492 268.649 84.2818 290.845 84.05 312.14C84.05 322.286 84.05 360.344 87.449 369.82C87.9898 371.314 90.3073 372.112 91.8265 372.55C96.0514 373.656 100.356 374.431 104.702 374.867C105.783 397.476 109.002 483.558 109.002 483.687C104.577 486.055 100.504 489.028 96.8993 492.519C96.3265 493.029 95.8969 493.68 95.653 494.407C95.4091 495.134 95.3594 495.913 95.5088 496.665C95.774 497.334 96.2717 497.884 96.9103 498.215C97.549 498.546 98.2857 498.636 98.985 498.467C103.26 498.081 114.77 494.631 119.971 493.678C120.1 494.785 120.28 495.867 121.362 496.253C123.216 496.897 126.872 497.231 128.211 495.558C129.55 493.884 128.752 489.506 128.932 487.627C129.087 486.236 140.829 405.227 144.846 377.442H148.065C153.009 404.197 166.527 480.7 166.553 480.829C163.876 482.863 161.338 485.073 158.957 487.446C156.974 489.455 153.652 493.06 154.966 495.532C156.279 498.004 159.369 496.742 161.97 495.789C167.12 493.987 174.845 490.511 178.784 489.223C179.068 490.279 179.402 491.335 180.51 491.566C182.046 491.798 183.613 491.719 185.119 491.335C187.308 490.691 187.694 489.326 187.694 487.06C186.741 475.653 186.715 511.626 187.488 376.927C190.343 376.812 193.172 376.336 195.908 375.511C203.195 371.932 202.526 267.361 193.05 234.453C192.406 232.187 188.338 220.367 185.454 213.029C185.544 212.779 185.544 212.506 185.454 212.256C184.607 210.124 183.653 208.035 182.595 205.999C183.368 196.523 184.192 178.24 184.964 172.704L191.376 177.107C191.902 179.179 192.644 181.19 193.591 183.107C194.645 185.875 196.339 188.354 198.535 190.343C201.308 192.898 204.609 194.813 208.205 195.952C211.8 197.091 215.601 197.427 219.341 196.935H223.667C228.662 226.599 227.22 223.483 227.967 224.23C208.989 289.635 202.861 413.698 205.436 476.58C205.435 476.878 205.535 477.168 205.719 477.404C207.032 479.078 215.221 479.979 217.924 480.442C212.846 483.15 208.012 486.295 203.479 489.841C201.187 492.081 204.2 496.279 207.006 497C208.551 497.412 229.563 494.425 231.16 494.193C231.366 495.171 231.829 496.124 232.808 496.304C235.562 496.779 238.357 496.977 241.151 496.897C242.284 496.897 243.726 496.639 243.983 495.558C244.843 491.272 245.343 486.922 245.477 482.554C247.305 482.554 249.133 482.554 249.726 482.039C254.876 476.889 277.87 345.847 279.75 335.264C280.389 331.714 280.553 328.094 280.239 324.5C276.506 280.339 277.896 298.519 277.304 281.498C277.328 281.397 277.386 281.307 277.468 281.242C277.549 281.178 277.65 281.143 277.754 281.143C277.858 281.143 277.959 281.178 278.041 281.242C278.123 281.307 278.181 281.397 278.205 281.498C279.93 301.737 280.96 302.433 282.351 329.11C282.351 330.938 303.337 474.52 307.122 478.279C309.138 479.113 311.301 479.534 313.483 479.515C313.236 485.059 313.677 490.612 314.796 496.047C314.867 496.251 314.979 496.438 315.126 496.598C315.272 496.757 315.448 496.885 315.646 496.974C317.525 497.901 324.555 496.974 325.946 496.794C326.387 496.627 326.775 496.341 327.066 495.969C327.356 495.597 327.539 495.151 327.594 494.682C329.782 494.991 350.228 497.875 351.721 497.489C354.528 496.768 357.567 492.571 355.249 490.305C349.886 486.204 344.183 482.569 338.203 479.438C341.293 479.206 347.782 478.64 350.46 477.069C354.502 474.674 350.64 295.042 318.195 221.372C318.787 220.419 321.053 193.974 321.156 192.789C329.295 192.514 337.182 189.894 343.867 185.244L354.168 181.536C347.895 205.435 343.19 229.717 340.082 254.229C339.49 259.07 336.503 283.12 339.722 286.725C340.054 287.099 340.512 287.337 341.009 287.395C342.477 287.523 348.348 288.038 354.605 288.425C354.605 362.301 361.867 401.956 373.583 479.747C373.62 479.988 373.741 480.209 373.925 480.369C374.108 480.529 374.343 480.619 374.587 480.623H375.257C375.742 484.209 376.526 487.749 377.6 491.206C379.222 494.476 404.38 494.399 407.933 493.266C408.554 492.948 409.045 492.426 409.327 491.789C409.608 491.151 409.662 490.436 409.478 489.764C408.448 485.18 399.179 484.176 394.801 480.88H396.32C396.558 480.886 396.79 480.81 396.978 480.665C397.165 480.519 397.297 480.313 397.35 480.082L417.049 381.485C417.281 382.927 431.134 481.91 431.134 481.91C431.178 482.169 431.314 482.404 431.518 482.569C431.722 482.735 431.979 482.821 432.241 482.811H434.276C434.638 486.44 435.222 490.043 436.027 493.601C436.066 493.764 436.143 493.916 436.25 494.045C436.357 494.175 436.492 494.278 436.645 494.347C439.22 495.558 461.854 496.922 465.588 494.888C466.266 494.52 466.782 493.912 467.035 493.183C467.287 492.454 467.258 491.657 466.952 490.948C466.306 489.156 465.152 487.59 463.631 486.442C460.515 484.717 455.082 484.331 452.172 482.811H453.614C453.86 482.797 454.095 482.704 454.285 482.547C454.475 482.389 454.61 482.175 454.67 481.936C454.67 481.936 462.163 454.409 466.566 391.09C469.141 354.164 469.862 316.415 469.579 279.901C472.875 280.159 478.488 280.416 481.27 280.288C482.042 280.288 482.789 280.288 483.124 279.541C486.111 273.593 483.844 214.471 482.171 199.561C482.016 198.119 478.334 173.631 477.845 170.438C486.419 170.103 498.805 168.275 505.835 163.254C541.885 137.504 548.76 93.5229 551.696 87.6261C551.979 87.0081 551.284 86.6991 549.558 85.8494C550.549 82.9099 551.727 80.0372 553.086 77.2489C556.665 75.2661 560.811 73.0001 561.094 68.9059C561.231 68.439 561.201 67.9389 561.008 67.4922C560.815 67.0455 560.472 66.6802 560.039 66.4596ZM303.234 40.1689C303.028 40.1689 302.977 40.0144 302.977 39.7569C302.977 39.4994 303.466 40.1689 303.234 40.1689ZM398.02 138.019C410.74 138.817 418.311 138.92 431.237 138.843C432.061 143.838 432.988 149.297 433.992 155.091C427.066 155.091 403.582 155.349 397.479 155.246C397.762 149.581 397.968 143.787 398.02 138.07V138.019ZM394.647 191.914C409.633 192.789 420.757 193.021 440.662 192.609C442.001 199.948 443.391 207.364 444.627 213.878C432.576 214.239 404.766 214.728 392.252 214.368C392.741 210.273 393.745 200.334 394.647 191.965V191.914ZM391.17 222.659C410.792 223.792 426.499 223.844 446.455 223.251C447.434 228.195 448.387 232.985 449.314 237.491C426.551 238.367 404.277 238.418 388.441 238.109C389.488 233.011 390.398 227.861 391.17 222.659ZM438.988 183.339C431.263 183.493 402.938 183.802 395.419 183.699C396.089 176.335 396.603 169.666 396.99 163.614C409.35 164.387 417.744 164.67 435.615 164.464C436.233 167.863 438.499 180.506 438.988 183.339ZM427.915 114.586C428.224 118.809 429.151 125.35 429.795 129.547C423.229 129.547 403.144 129.779 397.994 129.702C397.942 124.416 397.59 119.137 396.938 113.891C403.891 123.238 422.663 121.951 427.915 114.586ZM386.715 246.323C408.228 247.621 429.793 247.785 451.322 246.813C452.301 251.345 453.202 255.465 454.052 259.07C449.983 258.838 401.882 256.495 384.372 255.645C385.093 252.709 385.866 249.594 386.638 246.323H386.715ZM392.355 79.5921C391.454 77.7896 385.737 77.0171 385.196 72.4594C384.578 67.1291 390.784 66.9489 392.921 69.3436C393.101 69.5239 394.363 71.2234 394.518 71.4294C395.857 73.2319 397.093 73.2834 397.505 70.7084C398.097 65.9189 396.629 56.3399 402.217 57.3441C406.21 58.5964 410.315 59.4588 414.474 59.9191C422.379 60.6401 428.662 59.9191 433.761 54.2541C434.327 54.1254 436.207 54.0481 436.876 53.9966C437.111 56.7194 437.18 59.454 437.082 62.1851C437.258 70.451 435.824 78.6721 432.859 86.3901C428.765 96.2009 423.1 98.5699 423.1 98.5699C422.969 98.62 422.849 98.696 422.747 98.7933C422.645 98.8906 422.564 99.0072 422.508 99.1364C422.276 99.7286 422.199 99.1364 427.04 109.977C428.07 119.324 400.389 123.135 396.81 108.458L397.685 100.965C397.788 100.424 394.724 84.4074 392.277 79.5921H392.355ZM335.705 125.942C343.847 134.026 349.457 144.307 351.85 155.529C353.369 163.254 352.725 169.743 350.202 174.198C348.549 177.059 346.484 179.662 344.074 181.923C341.547 184.505 338.465 186.478 335.061 187.691C327.912 190.313 320.242 191.195 312.684 190.266C302.633 188.995 292.709 186.867 283.02 183.905C283.02 183.133 282.866 182.309 282.789 181.33L291.672 178.086C293.374 177.612 295.022 176.965 296.59 176.155C297.492 175.691 297.569 174.326 297.672 173.168C298.11 168.945 297.234 169.511 298.522 168.481C301.406 166.215 309.337 164.001 312.787 163.022C313.946 162.713 315.62 162.456 315.105 161.348C314.941 159.767 314.294 158.274 313.251 157.074C307.818 134.053 308.745 134.131 307.869 134.285C307.809 134.291 307.752 134.309 307.7 134.339C307.648 134.369 307.604 134.41 307.569 134.459C307.535 134.508 307.512 134.564 307.501 134.623C307.491 134.682 307.493 134.742 307.509 134.8C308.667 141.65 310.393 150.508 311.629 156.482L308.436 156.018C307.895 156.018 307.354 156.018 307.225 155.761C306.195 153.623 306.633 151.1 304.161 149.864C303.904 149.691 303.613 149.573 303.307 149.519C303.001 149.466 302.688 149.477 302.387 149.552C302.086 149.627 301.804 149.765 301.559 149.956C301.315 150.148 301.114 150.388 300.968 150.662C299.629 153.237 301.251 159.005 300.968 158.928C299.597 159.49 298.161 159.879 296.694 160.087C296.634 159.851 296.529 159.629 296.383 159.434C296.237 159.24 296.054 159.076 295.844 158.954C290.62 156.4 285.183 154.307 279.596 152.696C278.385 142.551 276.789 129.779 276.222 125.504C276.42 125.412 276.602 125.291 276.763 125.144C277.672 123.352 278.338 121.447 278.746 119.479C279.184 119.968 279.544 120.432 280.342 120.123C287.328 115.046 293.929 109.46 300.092 103.411C313.155 108.802 325.199 116.388 335.705 125.839V125.942ZM303.105 151.924C304.959 152.98 303.955 156.121 306.041 157.692C308.131 158.305 310.301 158.6 312.478 158.567C312.989 159.417 313.314 160.364 313.431 161.348C311.423 161.966 301.663 164.129 297.595 166.936C297.512 164.993 297.296 163.057 296.951 161.142C299.063 160.962 301.715 161.142 302.487 159.778C303.26 158.413 301.947 151.229 303.105 151.924ZM298.136 102.999C293.526 106.99 283.201 115.539 280.111 117.805C278.566 116.08 274.523 111.29 273.39 109.539C275.965 107.325 285.492 100.887 286.883 100.115C290.729 100.572 294.507 101.488 298.136 102.844V102.999ZM257.579 99.9346L270.145 109.617C268.24 111.651 263.579 115.694 261.493 117.805C258.558 115.694 250.55 107.222 246.043 102.535C249.827 101.415 253.681 100.546 257.579 99.9346ZM250.575 65.8416C250.215 65.3266 250.163 65.4811 247.537 64.0906C245.812 62.6744 243.726 61.5156 242.953 59.4041C242.953 57.6531 243.494 55.4901 245.322 55.5931C246.705 55.9116 247.987 56.5661 249.056 57.4986C250.225 57.882 251.481 57.9079 252.665 57.573C253.848 57.2381 254.905 56.5577 255.7 55.6189C256.592 54.0119 256.858 52.1315 256.446 50.3401C258.141 50.1886 259.71 49.3854 260.824 48.0999C261.373 46.9885 261.705 45.7824 261.802 44.5464C264.211 45.2307 266.783 45.0391 269.064 44.0056C270.622 43.334 272.045 42.3828 273.261 41.1989C273.53 41.8763 273.885 42.5167 274.317 43.1044C274.717 43.7167 275.275 44.2097 275.932 44.5314C276.59 44.8531 277.321 44.9918 278.051 44.9326C278.96 44.7884 279.833 44.4739 280.626 44.0056V45.0356C280.612 45.8254 280.772 46.6086 281.093 47.3301C281.415 48.0516 281.89 48.6938 282.487 49.2117C283.083 49.7296 283.786 50.1106 284.545 50.3278C285.305 50.5449 286.103 50.5931 286.883 50.4689C286.867 50.6402 286.867 50.8126 286.883 50.9839C287.14 52.3744 286.6 56.5716 288.531 57.0609C290.462 57.5501 289.406 52.7349 293.114 52.1426C293.78 51.98 294.483 52.0558 295.099 52.3569C295.715 52.6579 296.206 53.1652 296.488 53.7906C297.209 56.1081 296.488 57.1381 295.277 59.4299L294.479 60.3311C293.243 61.6701 291.904 63.0864 291.904 64.3739C291.981 68.3126 291.236 72.2241 289.715 75.8584C288.407 79.5423 286.108 82.7943 283.072 85.2571C282.921 85.3734 282.803 85.5275 282.731 85.7038C282.658 85.8802 282.634 86.0725 282.66 86.2614L284.771 98.6471L271.433 107.711C269.09 105.909 272.205 108.587 259.382 98.6729L260.772 86.6991C260.796 86.4794 260.755 86.2575 260.655 86.0608C260.554 85.8641 260.398 85.7011 260.206 85.5919C250.962 80.4161 251.683 67.6184 250.575 65.8416ZM220.705 114.509C227.75 109.464 235.581 105.618 243.88 103.128C248.594 108.552 253.606 113.71 258.893 118.578C260.026 119.556 261.467 120.766 262.472 119.736C262.832 119.324 263.373 118.784 263.991 118.166C264.634 120.4 265.39 122.6 266.257 124.758C266.36 124.948 266.499 125.117 266.667 125.254C266.835 125.391 267.028 125.494 267.236 125.556C266.952 128.878 266.257 138.431 265.459 149.014C257.289 147.261 248.935 146.517 240.584 146.8C240.584 146.13 241.408 138.199 241.434 137.942C241.434 136.551 241.434 134.723 241.589 134.002C241.619 133.889 241.604 133.769 241.546 133.667C241.488 133.566 241.392 133.492 241.28 133.461C241.167 133.43 241.047 133.446 240.945 133.504C240.844 133.562 240.77 133.657 240.739 133.77C238.447 138.431 238.859 141.727 239.168 146.877C233.408 147.162 227.763 148.588 222.559 151.074C222.453 151.129 222.374 151.223 222.337 151.337C222.301 151.45 222.311 151.573 222.366 151.679C222.421 151.785 222.515 151.865 222.629 151.901C222.742 151.937 222.865 151.927 222.971 151.872C240.996 143.066 273.699 151.409 291.08 158.902C292.293 159.399 293.471 159.975 294.608 160.627C295.401 164.688 295.643 168.836 295.329 172.962C295.329 174.12 295.329 174.404 293.269 175.202C291.801 175.794 290.05 176.206 288.969 176.618C285.441 177.931 282.042 179.193 278.669 180.481C259.627 186.592 240.169 191.325 220.448 194.643C214.036 194.643 205.59 193.459 200.878 189.03C180.484 169.949 201.805 127.487 220.705 114.509ZM124.194 92.6989C121.801 91.3187 119.757 89.4069 118.22 87.1111C114.203 80.8796 114.152 70.6826 114.821 63.3181C118.419 62.1985 121.689 60.2187 124.349 57.5501C127.228 54.6082 129.743 51.3317 131.842 47.7909L133.284 45.0099C135.894 51.6871 140.362 57.4773 146.159 61.6959C148.175 62.6185 150.355 63.1264 152.571 63.1894C152.52 65.2089 152.737 67.2263 153.215 69.1891C153.266 69.2931 153.338 69.3855 153.427 69.4605C153.515 69.5355 153.618 69.5917 153.729 69.6254C153.84 69.6592 153.957 69.6699 154.072 69.6569C154.187 69.6438 154.298 69.6073 154.399 69.5496C155.532 68.9316 155.97 65.6099 157.721 63.3181C158.184 62.6744 158.725 62.1851 159.395 62.3396C160.101 62.4477 160.771 62.7213 161.352 63.1379C163.927 65.0434 161.867 72.6654 157.051 75.0344C155.609 75.7554 148.09 84.5104 147.601 87.2656C147.279 88.779 147.359 90.3504 147.833 91.8234C147.987 94.0636 148.245 96.9734 148.425 99.5484C143.661 99.5484 132.048 99.5484 127.284 99.7801C127.516 93.4199 127.645 94.0894 124.194 92.6989ZM172.295 375.408H152.854C155.815 338.74 159.42 248.821 158.648 216.968C162.081 216.814 165.171 216.608 167.918 216.35C173.789 246.71 177.059 345.718 172.295 375.408ZM107.92 373.065C105.139 342.345 107.92 242.641 115.285 215.99C116.572 216.17 125.791 216.994 125.791 216.994C121.877 248.461 117.86 338.766 119.25 374.069C115.079 373.76 111.268 373.374 107.766 373.065H107.92ZM136.4 215.114L126.718 214.728C126.695 211.953 126.893 209.18 127.31 206.437L130.786 206.179L138.305 205.999C137.935 209.087 137.297 212.137 136.4 215.114ZM106.581 206.643L125.224 206.282C124.702 209.118 124.461 211.999 124.503 214.883C117.508 214.826 110.533 214.111 103.672 212.745C105.577 208.574 106.375 207.158 106.581 206.643ZM127.568 374.533C126.718 342.397 131.945 244.083 135.293 217.123C138.82 217.123 141.447 217.303 148.76 217.123C148.76 229.328 145.103 360.035 144.254 375.099C139.85 375.099 128.701 374.61 127.568 374.533ZM138.383 215.14C139.014 212.134 139.325 209.07 139.31 205.999C156.227 205.69 172.785 205.278 180.252 206.282C181.269 208.076 182.131 209.954 182.827 211.896C168.278 215.011 151.953 215.14 138.383 215.14ZM89.8953 369.511C85.4405 366.679 83.9985 286.751 89.4575 254.872C92.234 240.604 96.8473 226.755 103.182 213.672L105.886 214.239C98.676 240.272 95.792 334.878 99.3713 371.855C96.1196 371.514 92.9307 370.726 89.8953 369.511ZM127.156 485.386C119.997 486.365 116.135 486.931 113.328 487.549C111.717 487.701 110.107 487.261 108.796 486.313C110.907 485.052 111.371 485.232 111.371 484.022C111.603 479.026 106.504 384.884 105.886 374.919C117.628 376.258 132.306 376.979 144.048 377.314C140.056 401.879 128.984 472.795 127.078 485.464L127.156 485.386ZM184.784 480.082C178.244 481.91 174.149 483.095 171.394 484.125C169.817 484.498 168.158 484.278 166.733 483.507C168.587 482.039 168.974 482.142 168.871 480.932C168.407 475.782 150.253 382.644 149.223 377.468C163.798 377.777 177.548 377.623 186.484 377.005C185.891 405.922 184.861 468.288 184.707 480.159L184.784 480.082ZM191.325 234.916C199.925 265.378 200.801 358.516 195.007 373.477C192.844 374.558 183.136 374.97 180.767 375.073C185.917 343.015 183.342 246.323 177.445 215.089C179.866 214.702 182.029 214.29 184.037 213.853C186.896 221.655 190.655 232.882 191.247 234.993L191.325 234.916ZM173.145 159.649C172.038 158.645 170.956 157.743 170.029 156.765C169.958 156.673 169.852 156.613 169.736 156.598C169.62 156.584 169.503 156.616 169.411 156.688C169.319 156.759 169.259 156.865 169.245 156.981C169.23 157.096 169.262 157.213 169.334 157.306C173.737 164.516 179.84 167.992 183.11 170.953C182.286 174.095 181.437 192.918 180.535 204.068C173.737 202.497 138.228 204.351 126.306 204.351C126.034 204.355 125.775 204.466 125.585 204.66C116.212 205.098 108.822 205.535 106.762 205.664C105.526 202.78 103.981 198.119 103.028 195.158C107.203 195.908 111.482 195.873 115.645 195.055C115.717 196.621 116.057 198.162 116.65 199.613C117.937 200.746 160.785 197.682 162.15 197.398C163.077 197.192 163.103 195.905 163.18 194.823C163.412 192.248 163.566 186.583 163.669 179.94C164.068 179.781 164.427 179.537 164.722 179.226C165.017 178.914 165.241 178.542 165.378 178.136C165.515 177.729 165.562 177.298 165.516 176.871C165.47 176.445 165.332 176.033 165.111 175.665C165.412 175.282 165.632 174.841 165.756 174.369C165.881 173.898 165.908 173.406 165.836 172.924C165.763 172.441 165.593 171.979 165.336 171.565C165.078 171.151 164.739 170.794 164.339 170.515C164.671 170.191 164.925 169.794 165.078 169.355C165.232 168.916 165.283 168.448 165.225 167.986C165.168 167.525 165.004 167.083 164.748 166.696C164.491 166.308 164.148 165.985 163.746 165.752C163.746 156.456 163.746 147.392 163.412 142.319C163.257 138.148 163.128 137.684 162.485 137.169C161.223 136.397 155.79 136.706 153.343 136.809C153.377 135.717 153.081 134.64 152.494 133.719C151.309 132.56 146.082 133.719 143.043 133.719C142.374 131.581 142.039 129.985 139.67 128.878C138.504 128.466 137.226 128.501 136.085 128.977C134.943 129.452 134.019 130.335 133.49 131.453C133.49 131.71 132.743 133.822 132.589 134.517C129.826 134.726 127.075 135.078 124.349 135.573C123.37 135.882 123.293 137.942 123.267 139.384C113.457 140.414 112.813 140.414 112.633 141.418C112.452 142.422 113.173 158.799 113.225 160.164C110.817 160.469 108.434 160.943 106.092 161.58C106.579 158.382 106.872 155.157 106.968 151.924C106.968 150.508 107.096 144.456 106.247 144.431C105.397 144.405 104.882 150.353 104.805 151.538C104.65 153.34 104.418 160.061 104.547 162.069C103.466 162.404 102.436 162.765 101.38 163.177C101.27 163.218 101.182 163.3 101.134 163.407C101.085 163.513 101.081 163.634 101.122 163.743C101.163 163.852 101.246 163.941 101.352 163.989C101.458 164.037 101.579 164.042 101.689 164.001C116.238 158.979 135.936 161.786 146.726 167.194L147.215 178.034C137.893 184.549 123.061 192.609 111.731 194.051C108.39 194.437 105.012 194.368 101.689 193.845C82.1703 191.321 72.102 177.339 73.5183 157.254C74.6255 141.624 79.5953 126.509 91.5948 116.492C99.3198 110.08 114.075 107.891 124.117 108.767C126.692 108.973 125.302 103.411 125.971 101.402C126.95 101.248 130.065 101.196 131.121 101.171C130.993 102.945 130.993 104.726 131.121 106.501C131.121 107.248 131.662 110.054 132.331 109.848C133.001 109.642 133.258 107.454 133.284 106.836C133.31 106.218 133.284 106.14 133.052 101.171H141.627C141.523 102.886 141.523 104.606 141.627 106.321C141.627 107.067 142.168 109.874 142.837 109.668C143.507 109.462 143.764 107.273 143.79 106.655C143.816 106.037 143.79 104.75 143.558 101.222H149.841C150.099 102.057 150.238 102.924 150.253 103.797C150.253 106.784 149.738 107.222 150.253 107.814C151.644 109.385 164.261 103.153 201.161 133.873C194.286 145.461 188.853 160.627 190.861 173.992C184.861 169.949 186.02 171.211 173.145 159.649ZM115.079 159.881C114.821 151.254 114.615 143.375 114.615 142.422C116.65 142.113 121.259 141.65 123.293 141.444C123.293 145.229 123.448 145.486 125.868 145.744C130.477 146.285 150.794 145.744 152.931 143.916C153.125 143.759 153.276 143.555 153.369 143.323C153.532 141.905 153.567 140.474 153.472 139.049C155.985 138.907 158.504 138.907 161.017 139.049C161.506 143.632 161.558 160.55 161.558 165.159C160.591 165.168 159.629 165.307 158.699 165.571C159.06 163.46 159.601 160.035 157.463 159.572C156.891 159.408 156.284 159.416 155.716 159.594C155.148 159.773 154.646 160.114 154.27 160.576C153.155 162.296 152.499 164.273 152.365 166.318C151.186 166.322 150.008 166.253 148.837 166.112C148.797 165.973 148.728 165.843 148.635 165.733C148.542 165.622 148.427 165.532 148.296 165.468C137.926 160.662 126.446 158.758 115.079 159.958V159.881ZM163.489 174.12C162.485 174.713 161.841 174.301 160.038 174.532C159.758 174.532 159.49 174.644 159.292 174.842C159.094 175.04 158.983 175.308 158.983 175.588C158.983 175.868 159.094 176.137 159.292 176.335C159.49 176.533 159.758 176.644 160.038 176.644C160.894 176.731 161.757 176.731 162.613 176.644C162.819 176.644 163.566 176.798 163.566 177.004C163.566 179.348 158.957 178.446 156.923 177.262C154.402 177.107 151.874 177.351 149.429 177.983L148.914 167.374C150.315 167.749 151.776 167.845 153.215 167.657C153.414 167.546 153.562 167.361 153.627 167.142C154.219 164.979 154.708 160.988 156.974 161.554C157.107 163.176 156.941 164.808 156.485 166.37C156.227 167.966 156.845 168.327 158.056 168.224C159.137 167.738 160.297 167.45 161.48 167.374C162.15 167.374 162.819 167.374 163.025 168.146C163.231 168.919 162.562 169.202 161.918 169.434C161.274 169.666 158.751 170.026 158.493 170.078C158.239 170.158 158.022 170.327 157.882 170.555C157.743 170.782 157.69 171.052 157.734 171.316C157.778 171.579 157.915 171.818 158.121 171.987C158.327 172.157 158.587 172.247 158.854 172.241C161.97 171.906 161.429 171.751 162.356 171.957C162.76 172.052 163.118 172.283 163.372 172.611C163.625 172.94 163.757 173.345 163.746 173.76C163.751 173.85 163.729 173.939 163.683 174.017C163.637 174.095 163.57 174.158 163.489 174.198V174.12ZM149.301 179.039C151.571 178.738 153.859 178.583 156.15 178.575C157.757 179.59 159.606 180.159 161.506 180.223C161.506 184.832 161.506 193.098 161.197 195.519C155.584 196.111 122.855 199.304 117.242 198.789C116.945 197.466 116.747 196.124 116.65 194.772C130.864 191.836 148.58 180.481 149.301 179.116V179.039ZM242.001 494.502C239.066 494.693 236.118 494.537 233.22 494.038V492.751C233.19 492.442 233.042 492.156 232.808 491.953C232.113 491.412 232.653 491.798 214.628 494.09L208.732 494.759C208.165 494.759 207.521 495.043 207.521 494.759C206.131 494.399 204.097 491.953 204.946 491.051C209.758 487.19 214.835 483.671 220.139 480.52C228.147 481.472 237.726 482.142 243.649 482.322C243.386 486.44 242.844 490.535 242.026 494.579L242.001 494.502ZM329.01 479.67C331.405 479.67 333.799 479.541 336.091 479.412C339.567 481.55 351.052 488.631 353.884 491.541C354.348 492.03 353.884 492.983 353.472 493.523C351.824 495.789 350.563 495.223 350.099 495.171C345.722 494.811 331.224 492.777 326.924 492.159C326.775 492.137 326.622 492.146 326.476 492.186C326.331 492.225 326.194 492.294 326.076 492.388C325.958 492.482 325.86 492.599 325.789 492.733C325.718 492.866 325.675 493.012 325.662 493.163V494.45C322.775 494.973 319.835 495.137 316.907 494.94C315.866 489.925 315.331 484.818 315.311 479.696C315.259 478.949 314.487 480.005 329.036 479.747L329.01 479.67ZM316.495 219.904C303.286 219.904 240.456 221.475 229.743 222.685C229.486 218.307 226.499 200.308 225.778 195.982C238.206 193.843 250.514 191.059 262.652 187.639C262.349 189.39 262.271 191.173 262.42 192.944C265.524 196.691 268.972 200.14 272.72 203.244C272.914 203.397 273.146 203.494 273.391 203.526C273.635 203.558 273.884 203.522 274.111 203.424C277.793 200.35 280.95 196.697 283.458 192.609C283.565 190.479 283.418 188.344 283.02 186.249C290.179 188.824 309.594 192.892 319.328 192.738C318.864 198.068 316.907 217.174 316.495 219.904ZM343.79 243.671C350.382 198.274 356.536 183.236 356.665 179.888C360.745 178.114 364.545 175.755 367.944 172.884C369.28 171.699 370.536 170.425 371.703 169.073C372.141 168.661 371.549 168.018 371.137 168.404C370.725 168.79 369.72 169.331 369 169.794C360.245 175.665 358.236 177.803 347.962 181.459C350.206 179.243 351.907 176.537 352.932 173.554C357.438 158.336 351.232 142.654 341.37 130.32C353.13 123.055 365.64 117.081 378.682 112.501C383.825 110.776 389.094 109.451 394.441 108.535C394.634 109.662 394.989 110.755 395.496 111.78C399.616 137.092 391.479 210.763 386.638 235.225C383.832 249.439 378.475 270.168 372.321 283.429C371.911 284.412 371.42 285.359 370.854 286.262C367.609 287.343 344.846 285.438 341.318 285.103C338.692 280.339 343.044 249.182 343.842 243.671H343.79ZM452.713 480.571H433.168C433.168 479.799 418.645 377.082 418.233 375.666C419.881 365.082 431.108 308.304 430.722 294.115C430.722 293.999 430.676 293.888 430.594 293.806C430.512 293.724 430.401 293.678 430.284 293.678C430.168 293.678 430.057 293.724 429.975 293.806C429.893 293.888 429.847 293.999 429.847 294.115C429.847 295.609 429.383 298.493 428.765 302.33C419.212 361.967 411.873 396.317 395.445 478.82L375.566 478.614C362.536 396.214 356.15 356.25 355.815 288.528C358.545 288.682 369.875 289.403 372.064 288.296C372.836 287.91 373.634 286.184 374.124 285.18C377.99 276.355 381.175 267.247 383.651 257.937C401.29 258.915 446.61 261.027 454.412 261.439C457.734 277.095 457.966 277.996 458.893 278.331C461.838 279.082 464.846 279.556 467.879 279.747C468.085 331.942 465.356 429.766 452.764 480.442L452.713 480.571ZM550.563 87.5231C547.009 95.8404 539.439 137.452 504.779 161.76C498.007 166.498 485.673 168.198 477.433 168.43C477.06 164.38 476.284 160.377 475.115 156.482C474.6 154.885 473.828 153.005 473.364 151.872C473.316 151.778 473.237 151.703 473.14 151.66C473.044 151.617 472.935 151.609 472.833 151.636C472.731 151.663 472.641 151.724 472.578 151.809C472.516 151.894 472.484 151.998 472.489 152.104C473.905 163.383 474.137 159.391 475.682 169.588C475.682 169.588 479.93 198.351 480.085 199.767C482.068 217.792 483.329 270.683 481.321 278.022C474.211 278.188 467.102 277.636 460.103 276.374C457.348 267.181 430.387 133.641 429.795 111.084C436.619 112.32 462.935 121.796 484.977 122.492C504.65 123.084 534.237 81.2916 534.495 81.2916C536.529 80.9311 547.756 85.6949 550.588 87.3944L550.563 87.5231ZM559.189 68.7514C558.983 72.0731 555.12 74.3134 552.262 76.0644C551.258 76.7081 548.992 84.3559 548.709 85.4374C545.149 83.7748 541.495 82.3217 537.765 81.0856C540.34 77.1716 542.58 75.1116 541.602 74.1846C539.825 72.5624 536.452 70.3736 538.203 68.5454C538.419 68.5924 538.627 68.6704 538.821 68.7771C541.267 69.9359 543.224 73.0774 544.28 71.1461C544.752 68.8768 545.397 66.6472 546.211 64.4769C547.576 61.3096 548.425 61.9019 548.091 64.9919C547.799 67.1039 547.272 69.1767 546.52 71.1719C546.431 71.4519 546.457 71.7557 546.592 72.0164C546.728 72.2772 546.961 72.4736 547.241 72.5624C547.521 72.6511 547.825 72.6251 548.086 72.4898C548.346 72.3546 548.543 72.1214 548.631 71.8414C549.274 69.5628 550.237 67.3868 551.49 65.3781C552.751 63.5241 554.271 63.0606 554.219 64.3224C553.819 66.5843 552.941 68.735 551.644 70.6311C551.312 71.0937 551.108 71.6354 551.052 72.2019C551.01 72.4424 551.053 72.6899 551.173 72.9024C551.294 73.1148 551.484 73.279 551.711 73.3671C551.939 73.4551 552.19 73.4615 552.422 73.3852C552.654 73.3089 552.852 73.1546 552.983 72.9486C553.757 71.8674 554.619 70.8512 555.558 69.9101C557.077 68.4166 559.292 67.3866 559.215 68.6226L559.189 68.7514Z" fill="black"/>
<path d="M269.193 70.7608C270.249 73.1556 276.017 71.6621 274.884 70.4518C274.802 70.3701 274.691 70.3242 274.575 70.3242C274.459 70.3242 274.348 70.3701 274.266 70.4518C273.923 70.5622 273.554 70.5622 273.21 70.4518C272.508 70.3511 271.823 70.1517 271.176 69.8596V60.1776C271.152 60.0764 271.094 59.9864 271.012 59.922C270.931 59.8576 270.83 59.8226 270.726 59.8226C270.621 59.8226 270.52 59.8576 270.439 59.922C270.357 59.9864 270.299 60.0764 270.275 60.1776C269.351 62.9903 268.958 65.9504 269.116 68.9068C269.052 69.5253 269.078 70.1499 269.193 70.7608ZM261.726 64.3748C261.726 63.6796 261.726 62.9328 261.571 62.2891C261.521 62.0019 261.361 61.7452 261.126 61.5726C260.891 61.3999 260.599 61.3245 260.31 61.3621C260.163 61.3839 260.023 61.4348 259.897 61.5118C259.77 61.5888 259.661 61.6902 259.575 61.8102C259.488 61.9302 259.427 62.0663 259.394 62.2105C259.361 62.3547 259.357 62.504 259.383 62.6496C259.383 63.1131 259.383 63.6538 259.511 64.5293C259.522 64.6747 259.56 64.8167 259.625 64.9472C259.69 65.0776 259.78 65.194 259.89 65.2897C260 65.3853 260.128 65.4583 260.266 65.5046C260.405 65.5509 260.551 65.5695 260.696 65.5593C260.841 65.5492 260.983 65.5105 261.114 65.4455C261.244 65.3805 261.361 65.2904 261.456 65.1804C261.552 65.0704 261.625 64.9427 261.671 64.8044C261.717 64.6662 261.736 64.5202 261.726 64.3748ZM279.107 64.1946C279.107 64.4882 279.224 64.7699 279.431 64.9775C279.639 65.1852 279.921 65.3018 280.214 65.3018C280.508 65.3018 280.79 65.1852 280.997 64.9775C281.205 64.7699 281.322 64.4882 281.322 64.1946V63.0358C281.469 62.8268 281.541 62.574 281.527 62.3187C281.512 62.0633 281.412 61.8203 281.242 61.6293C281.072 61.4383 280.842 61.3105 280.59 61.2667C280.338 61.2228 280.079 61.2655 279.854 61.3878C278.85 62.0316 279.107 63.3191 279.107 64.1946ZM273.906 80.1081C272.98 80.6236 272.005 81.0462 270.996 81.3698C270.429 81.3698 270.301 82.1681 270.996 82.2453C271.65 82.5739 272.376 82.7333 273.107 82.7088C273.855 82.6205 274.572 82.3637 275.205 81.9578C275.839 81.5519 276.372 81.0074 276.764 80.3656C277.082 79.6825 277.215 78.9277 277.15 78.1768C277.174 78.0607 277.151 77.9399 277.086 77.8409C277.02 77.7419 276.919 77.6729 276.803 77.649C276.686 77.6251 276.566 77.6483 276.467 77.7134C276.368 77.7786 276.299 77.8805 276.275 77.9966C275.572 78.792 274.776 79.5008 273.906 80.1081ZM417.642 81.8591C419.599 82.4771 422.792 82.8891 424.157 81.3441C425.522 79.7991 424.775 75.7821 424.62 74.0826C424.299 70.7453 423.573 67.4594 422.457 64.2976C422.434 64.1815 422.364 64.0796 422.265 64.0144C422.166 63.9493 422.046 63.9261 421.93 63.95C421.813 63.9739 421.712 64.0429 421.646 64.1419C421.581 64.2409 421.558 64.3617 421.582 64.4778C421.582 65.2761 421.942 69.2158 422.02 70.2201C422.512 73.5001 422.685 76.8204 422.535 80.1338C421.957 80.5245 421.295 80.7717 420.603 80.8548C418.028 81.2926 417.436 80.6746 417.307 81.3441C417.292 81.4 417.289 81.4586 417.298 81.5158C417.307 81.5731 417.328 81.6278 417.36 81.6764C417.391 81.7251 417.433 81.7665 417.481 81.7979C417.53 81.8294 417.585 81.8502 417.642 81.8591ZM413.29 64.8898C413.29 64.0658 410.921 63.6538 409.376 63.9886C407.831 64.3233 405.72 65.9456 406.312 66.5636C406.904 67.1816 413.187 65.6366 413.29 64.8898ZM411.591 71.0441V73.2586C411.591 73.5522 411.708 73.8339 411.915 74.0415C412.123 74.2492 412.405 74.3658 412.698 74.3658C412.992 74.3658 413.273 74.2492 413.481 74.0415C413.689 73.8339 413.805 73.5522 413.805 73.2586V71.1213C413.812 70.8251 413.703 70.538 413.501 70.3214C413.299 70.1048 413.02 69.976 412.724 69.9626C412.432 69.9623 412.152 70.0746 411.94 70.276C411.729 70.4775 411.604 70.7526 411.591 71.0441ZM433.556 65.9456C433.762 65.6366 432.938 63.9886 430.981 63.3706C429.024 62.7526 427.53 63.7311 427.53 64.1946C427.53 64.6581 433.169 66.5121 433.556 65.9456ZM410.484 87.3696C409.891 87.5498 409.891 91.2578 413.419 92.3136C415.222 92.8286 417.668 92.5453 417.719 91.9016C417.771 91.2578 414.217 90.4853 413.059 89.6871C411.9 88.8888 410.973 87.2151 410.484 87.3696ZM430.028 69.5248C429.883 69.5214 429.738 69.5467 429.602 69.5992C429.467 69.6517 429.343 69.7304 429.237 69.8308C429.132 69.9313 429.048 70.0515 428.989 70.1845C428.93 70.3176 428.898 70.4609 428.895 70.6063V72.7951C428.936 73.063 429.071 73.3074 429.277 73.484C429.482 73.6606 429.744 73.7578 430.015 73.7578C430.286 73.7578 430.548 73.6606 430.754 73.484C430.959 73.3074 431.094 73.063 431.135 72.7951V70.6578C431.139 70.5103 431.113 70.3635 431.058 70.2262C431.004 70.0889 430.923 69.9638 430.82 69.8582C430.717 69.7526 430.594 69.6688 430.458 69.6115C430.322 69.5543 430.176 69.5248 430.028 69.5248Z" fill="black"/>
</svg>
